<svg width="104" height="71" viewBox="0 0 104 71" fill="none" xmlns="http://www.w3.org/2000/svg">
<path fill-rule="evenodd" clip-rule="evenodd" d="M79.3771 51.602C79.3511 41.7556 79.3511 31.262 79.4571 28.7594C79.4921 27.9358 79.4141 27.1113 79.2311 26.3031L97.0211 21.3934C99.4321 28.0487 101.914 34.8428 102.626 37.0522C104.01 41.3351 101.735 45.0413 97.9051 46.3625C96.4451 46.8659 88.6931 49.0329 79.3771 51.602ZM25.4041 18.7973C25.7161 18.6661 26.0491 18.5436 26.4031 18.4337C32.9151 16.4056 77.5491 2.16052 82.7041 0.996495C87.8581 -0.168492 90.3811 1.65132 91.9401 6.9333C92.1121 7.51675 92.4081 8.41557 92.7931 9.53909L61.8971 18.1829C52.3191 18.2562 35.2501 18.5918 25.4041 18.7973ZM67.6571 24.7775C71.7161 25.0947 73.7821 27.9763 73.5941 32.4434C73.4061 36.9105 73.5951 59.3664 73.5211 63.8566C73.4301 69.3305 70.0161 70.3479 64.7181 70.5109C59.4201 70.6729 15.9781 70.3383 9.13107 70.534C2.28407 70.7317 1.25007 67.3149 1.35507 63.8257C1.46007 60.3375 0.84007 37.1323 0.98907 31.5494C1.13607 25.9666 4.52607 24.7032 9.89207 24.8421C15.2581 24.9829 63.6001 24.4611 67.6571 24.7775ZM41.5461 45.1647C29.0721 45.1647 28.7601 63.5171 40.6811 63.5171C54.8201 63.5171 53.7801 45.1647 41.5461 45.1647ZM52.8651 46.0703C56.7011 50.98 56.8251 58.184 52.6381 62.8006C53.7081 63.2567 54.9491 63.5171 56.3641 63.5171C70.5031 63.5171 69.4641 45.1647 57.2281 45.1647C55.5541 45.1647 54.1011 45.4974 52.8651 46.0703Z" fill="url(#paint0_linear_309_1241)"/>
<defs>
<linearGradient id="paint0_linear_309_1241" x1="38.1564" y1="77.4546" x2="122.697" y2="16.0477" gradientUnits="userSpaceOnUse">
<stop stop-color="white"/>
<stop offset="1" stop-color="#AED3FF"/>
</linearGradient>
</defs>
</svg>
