<svg width="59" height="106" viewBox="0 0 59 106" fill="none" xmlns="http://www.w3.org/2000/svg">
<path fill-rule="evenodd" clip-rule="evenodd" d="M0 37.6164C0 30.367 3.262 26.0562 11.29 26.0562C18.207 26.0572 42.282 26.2963 47.677 26.2954C55.147 26.2954 58.32 29.2348 58.32 37.7803C58.32 42.1076 58.592 97.1609 58.592 97.1609L0.0610008 97.6836C0.0610008 97.6826 0 41.4392 0 37.6164ZM44.251 53.4488C55.001 53.4488 54.719 36.8873 43.471 36.8873C32.437 36.8873 31.499 53.4488 44.251 53.4488ZM36.343 73.1205L42.503 61.7214L22.025 54.0159L18.029 65.0939L36.343 73.1205ZM37.098 24.0136L36.622 8.18891L21.476 8.90352L20.55 24.192L15.634 23.4784L14.973 0.484375H43.373L42.077 24.0136H37.098ZM11.656 100.582L12.043 105.104L5.454 105.158L5.478 100.395L11.656 100.582ZM53.061 100.582L53.449 105.345L46.86 105.159L46.884 100.395L53.061 100.582Z" fill="url(#paint0_linear_309_1255)"/>
<defs>
<linearGradient id="paint0_linear_309_1255" x1="21.3491" y1="115.693" x2="90.1676" y2="96.5654" gradientUnits="userSpaceOnUse">
<stop stop-color="white"/>
<stop offset="1" stop-color="#AED3FF"/>
</linearGradient>
</defs>
</svg>
