<svg xmlns="http://www.w3.org/2000/svg" width="94" height="99" fill="none"><path fill="url(#a)" fill-rule="evenodd" d="m4.714 53.965 18.824-23.392 51.093.778 18.824 21.837-44.909 45.33L4.714 53.965Zm21.997-17.56L12.818 53.721l29.721 30.693L31.624 56.69l-9.923-1.186.247-3.144 9.565-.735 4.645-15.26-9.447.04Zm32.578-.133-17.163.07-4.55 15.004 25.441-.023-3.728-15.05Zm3.268 20.845-24.613-.008 11.049 30.87 13.564-30.862ZM27.372 21.22l.724-16.275 8.023 1.219-5.04 15.674-3.707-.618ZM9.653 2.869l8.269-2.29 4.658 21.026-3.779 1.724L9.653 2.87Zm3.53 25.122L0 21.471l4.754-6.398 10.127 9.917-1.698 3.001Z" clip-rule="evenodd"/><defs><linearGradient id="a" x1="34.052" x2="130.557" y1="108.183" y2="62.378" gradientUnits="userSpaceOnUse"><stop stop-color="#fff"/><stop offset="1" stop-color="#AED3FF"/></linearGradient></defs></svg>