<svg width="94" height="99" viewBox="0 0 94 99" fill="none" xmlns="http://www.w3.org/2000/svg">
<path fill-rule="evenodd" clip-rule="evenodd" d="M4.714 53.965L23.538 30.5727L74.631 31.3509L93.455 53.1877L48.546 98.518L4.714 53.965ZM26.711 36.4044L12.818 53.722L42.539 84.4147L31.624 56.6904L21.701 55.5042L21.948 52.3602L31.513 51.6254L36.158 36.3658L26.711 36.4044ZM59.289 36.2722L42.126 36.3417L37.576 51.3457L63.017 51.3225L59.289 36.2722ZM62.557 57.1166L37.944 57.1089L48.993 87.9791L62.557 57.1166ZM27.372 21.221L28.096 4.94586L36.119 6.16485L31.079 21.8391L27.372 21.221ZM9.653 2.86856L17.922 0.578125L22.58 21.6048L18.801 23.3291L9.653 2.86856ZM13.183 27.991L0 21.4707L4.754 15.073L14.881 24.9898L13.183 27.991Z" fill="url(#paint0_linear_309_1258)"/>
<defs>
<linearGradient id="paint0_linear_309_1258" x1="34.0522" y1="108.183" x2="130.557" y2="62.3779" gradientUnits="userSpaceOnUse">
<stop stop-color="white"/>
<stop offset="1" stop-color="#AED3FF"/>
</linearGradient>
</defs>
</svg>
