<svg width="177" height="44" viewBox="0 0 177 44" fill="none" xmlns="http://www.w3.org/2000/svg">
<path d="M34.344 25.416C34.296 25.704 34.188 25.896 34.02 25.992C33.852 26.088 33.624 26.136 33.336 26.136C32.928 26.136 32.244 26.124 31.284 26.1C30.324 26.1 29.292 26.1 28.188 26.1C26.556 26.1 24.948 26.124 23.364 26.172C21.78 26.244 20.124 26.316 18.396 26.388C16.692 26.46 14.892 26.52 12.996 26.568C11.1 26.64 9.024 26.676 6.768 26.676C5.592 26.676 4.668 26.652 3.996 26.604C3.324 26.556 2.856 26.508 2.592 26.46C1.632 26.244 0.96 25.908 0.576 25.452C0.192 24.996 0 24.492 0 23.94C0 23.028 0.264 22.188 0.792 21.42C1.32 20.628 2.016 19.908 2.88 19.26C3.744 18.588 4.74 17.976 5.868 17.424C6.996 16.848 8.16 16.332 9.36 15.876C10.584 15.42 11.796 15.012 12.996 14.652C14.22 14.292 15.336 13.98 16.344 13.716C17.376 13.452 18.264 13.224 19.008 13.032C19.776 12.84 20.316 12.684 20.628 12.564C21.684 12.18 22.212 11.904 22.212 11.736C22.212 11.592 22.056 11.508 21.744 11.484C21.456 11.436 21.216 11.412 21.024 11.412C20.256 11.412 19.572 11.436 18.972 11.484C18.396 11.508 17.832 11.544 17.28 11.592C16.752 11.616 16.2 11.664 15.624 11.736C15.072 11.784 14.412 11.832 13.644 11.88C12.9 11.904 12.024 11.94 11.016 11.988C10.032 12.012 8.832 12.024 7.416 12.024C6.984 12.024 6.564 11.976 6.156 11.88C5.748 11.76 5.376 11.604 5.04 11.412C4.728 11.196 4.464 10.944 4.248 10.656C4.056 10.368 3.96 10.032 3.96 9.648C3.96 8.64 4.416 7.716 5.328 6.876C6.264 6.036 7.476 5.28 8.964 4.608C10.452 3.936 12.132 3.348 14.004 2.844C15.876 2.316 17.748 1.884 19.62 1.548C21.516 1.212 23.328 0.960001 25.056 0.792001C26.784 0.624001 28.236 0.540001 29.412 0.540001C30.78 0.540001 31.884 0.600001 32.724 0.720001C33.588 0.816001 34.02 1.044 34.02 1.404C34.02 1.572 33.912 1.74 33.696 1.908C33.504 2.052 33.264 2.196 32.976 2.34C32.688 2.46 32.388 2.556 32.076 2.628C31.764 2.7 31.5 2.736 31.284 2.736C31.188 2.736 31.14 2.712 31.14 2.664C31.14 2.64 31.152 2.604 31.176 2.556C31.2 2.484 31.212 2.424 31.212 2.376C31.212 2.304 31.176 2.244 31.104 2.196C31.032 2.124 30.888 2.088 30.672 2.088C28.464 2.088 26.292 2.16 24.156 2.304C22.044 2.448 20.04 2.664 18.144 2.952C16.272 3.24 14.544 3.588 12.96 3.996C11.376 4.38 10.008 4.824 8.856 5.328C7.728 5.832 6.84 6.384 6.192 6.984C5.568 7.56 5.256 8.172 5.256 8.82C5.256 9.204 5.412 9.504 5.724 9.72C6.06 9.912 6.456 10.056 6.912 10.152C7.368 10.248 7.836 10.308 8.316 10.332C8.796 10.356 9.192 10.368 9.504 10.368C10.368 10.368 11.268 10.344 12.204 10.296C13.14 10.224 14.064 10.164 14.976 10.116C15.888 10.044 16.764 9.984 17.604 9.936C18.468 9.864 19.26 9.828 19.98 9.828C21.036 9.828 21.876 9.924 22.5 10.116C23.148 10.284 23.472 10.62 23.472 11.124C23.472 11.532 23.232 11.904 22.752 12.24C22.272 12.576 21.732 12.828 21.132 12.996C19.74 13.38 18.276 13.788 16.74 14.22C15.228 14.628 13.74 15.072 12.276 15.552C10.836 16.008 9.456 16.512 8.136 17.064C6.84 17.592 5.688 18.168 4.68 18.792C3.696 19.392 2.904 20.04 2.304 20.736C1.728 21.408 1.44 22.14 1.44 22.932C1.464 23.292 1.596 23.604 1.836 23.868C2.028 24.108 2.328 24.336 2.736 24.552C3.144 24.744 3.732 24.84 4.5 24.84C6.684 24.84 8.76 24.816 10.728 24.768C12.72 24.72 14.64 24.672 16.488 24.624C18.36 24.576 20.196 24.528 21.996 24.48C23.796 24.432 25.596 24.408 27.396 24.408C28.668 24.408 29.82 24.408 30.852 24.408C31.908 24.408 32.604 24.432 32.94 24.48C33.516 24.528 33.888 24.648 34.056 24.84C34.248 25.008 34.344 25.2 34.344 25.416ZM45.7414 23.328C45.7414 23.424 45.7054 23.496 45.6334 23.544L44.0134 24.192C43.7734 24.288 43.4614 24.42 43.0774 24.588C42.7174 24.732 42.3214 24.876 41.8894 25.02C41.4574 25.164 41.0374 25.296 40.6294 25.416C40.2214 25.512 39.8614 25.56 39.5494 25.56C39.0454 25.56 38.7934 25.404 38.7934 25.092C38.7934 24.996 38.8054 24.876 38.8294 24.732C38.8774 24.564 38.9614 24.396 39.0814 24.228C38.8894 24.372 38.6254 24.54 38.2894 24.732C37.9534 24.9 37.5934 25.068 37.2094 25.236C36.8254 25.38 36.4294 25.512 36.0214 25.632C35.6374 25.752 35.2894 25.812 34.9774 25.812C34.5214 25.812 34.1974 25.716 34.0054 25.524C33.7894 25.356 33.6814 25.14 33.6814 24.876C33.6814 24.42 33.9214 23.856 34.4014 23.184C34.8814 22.512 35.4934 21.876 36.2374 21.276C36.9814 20.652 37.7974 20.124 38.6854 19.692C39.5734 19.26 40.4254 19.044 41.2414 19.044C41.6494 19.044 41.9374 19.116 42.1054 19.26C42.2734 19.404 42.3574 19.608 42.3574 19.872C42.3574 20.256 42.1774 20.604 41.8174 20.916C41.4814 21.228 41.1574 21.48 40.8454 21.672C40.7494 21.72 40.6774 21.744 40.6294 21.744C40.5814 21.744 40.5094 21.72 40.4134 21.672C40.3414 21.6 40.3054 21.516 40.3054 21.42C40.3054 21.3 40.4014 21.12 40.5934 20.88C40.6894 20.784 40.7974 20.652 40.9174 20.484C41.0614 20.292 41.1334 20.136 41.1334 20.016C41.1334 19.92 41.0854 19.848 40.9894 19.8C40.9174 19.728 40.7494 19.692 40.4854 19.692C40.0774 19.692 39.5734 19.848 38.9734 20.16C38.3734 20.448 37.7974 20.82 37.2454 21.276C36.6934 21.708 36.2134 22.164 35.8054 22.644C35.4214 23.124 35.2294 23.544 35.2294 23.904C35.2294 24.168 35.3374 24.372 35.5534 24.516C35.7694 24.636 36.0094 24.696 36.2734 24.696C36.5374 24.696 36.8374 24.636 37.1734 24.516C37.5094 24.396 37.8334 24.264 38.1454 24.12C38.4574 23.976 38.7334 23.832 38.9734 23.688C39.2374 23.52 39.4054 23.4 39.4774 23.328C39.5254 23.28 39.5974 23.208 39.6934 23.112C39.7894 23.016 39.8854 22.968 39.9814 22.968C40.0294 22.968 40.1014 22.992 40.1974 23.04C40.2934 23.088 40.3414 23.172 40.3414 23.292C40.2214 23.484 40.1374 23.652 40.0894 23.796C40.0414 23.94 40.0174 24.072 40.0174 24.192C40.0174 24.504 40.2334 24.66 40.6654 24.66C40.9294 24.66 41.2174 24.624 41.5294 24.552C41.8654 24.456 42.1894 24.36 42.5014 24.264C42.8374 24.144 43.1374 24.036 43.4014 23.94C43.6894 23.82 43.9054 23.736 44.0494 23.688C44.5294 23.496 44.8894 23.352 45.1294 23.256C45.2734 23.184 45.4174 23.124 45.5614 23.076C45.6094 23.076 45.6454 23.112 45.6694 23.184C45.7174 23.232 45.7414 23.28 45.7414 23.328ZM58.5245 27.72C58.5245 28.032 58.3685 28.212 58.0565 28.26C57.7685 28.332 57.4925 28.368 57.2285 28.368C57.1325 28.368 56.8325 28.356 56.3285 28.332C55.8245 28.308 55.2365 28.284 54.5645 28.26C53.9165 28.26 53.2205 28.248 52.4765 28.224C51.7565 28.2 51.1085 28.188 50.5325 28.188C49.9085 28.188 49.2965 28.2 48.6965 28.224C48.1205 28.272 47.5445 28.344 46.9685 28.44C45.6005 30.168 44.2205 31.908 42.8285 33.66C41.4125 35.436 40.0685 37.02 38.7965 38.412C37.5005 39.828 36.3245 40.98 35.2685 41.868C34.1885 42.756 33.3245 43.2 32.6765 43.2C32.1245 43.2 31.6925 43.02 31.3805 42.66C31.0685 42.324 30.9125 41.88 30.9125 41.328C30.9125 40.176 31.2605 38.904 31.9565 37.512C32.6525 36.144 33.6845 34.8 35.0525 33.48C36.4205 32.184 38.1125 30.996 40.1285 29.916C42.1445 28.86 44.4605 28.056 47.0765 27.504C47.7965 26.544 48.3725 25.752 48.8045 25.128C49.2605 24.48 49.4885 24.096 49.4885 23.976C49.4885 23.88 49.4525 23.832 49.3805 23.832C49.3085 23.832 49.2125 23.868 49.0925 23.94C48.9485 24.012 48.7565 24.108 48.5165 24.228C48.3005 24.348 48.0485 24.468 47.7605 24.588C47.4725 24.684 47.1725 24.768 46.8605 24.84C46.5725 24.912 46.2965 24.948 46.0325 24.948C45.6965 24.948 45.3965 24.864 45.1325 24.696C44.8925 24.504 44.7725 24.204 44.7725 23.796C44.7725 23.004 45.1085 22.26 45.7805 21.564C46.4525 20.868 47.2445 20.268 48.1565 19.764C49.0685 19.26 49.9805 18.864 50.8925 18.576C51.8285 18.264 52.5365 18.108 53.0165 18.108C53.3045 18.108 53.5925 18.18 53.8805 18.324C54.1685 18.468 54.3245 18.744 54.3485 19.152C54.3485 19.296 54.2645 19.476 54.0965 19.692C53.9285 19.884 53.7245 20.064 53.4845 20.232C53.2445 20.4 53.0045 20.544 52.7645 20.664C52.5485 20.784 52.3685 20.844 52.2245 20.844C52.0805 20.844 51.9725 20.796 51.9005 20.7C51.8285 20.604 51.7925 20.496 51.7925 20.376C51.7925 20.232 51.8525 20.124 51.9725 20.052C52.0205 20.004 52.0925 19.944 52.1885 19.872C52.3085 19.8 52.4285 19.728 52.5485 19.656C52.7405 19.512 52.8365 19.332 52.8365 19.116C52.8365 18.9 52.6925 18.792 52.4045 18.792C51.9005 18.792 51.3125 18.948 50.6405 19.26C49.9685 19.548 49.3205 19.92 48.6965 20.376C48.0965 20.808 47.5805 21.288 47.1485 21.816C46.7165 22.344 46.5005 22.836 46.5005 23.292C46.5005 23.508 46.5845 23.664 46.7525 23.76C46.9205 23.856 47.1005 23.904 47.2925 23.904C47.6285 23.904 47.9885 23.832 48.3725 23.688C48.7565 23.544 49.1285 23.376 49.4885 23.184C49.8725 22.968 50.2325 22.74 50.5685 22.5C50.9285 22.26 51.2285 22.044 51.4685 21.852C51.5645 21.756 51.6605 21.708 51.7565 21.708C51.8765 21.708 51.9365 21.78 51.9365 21.924C51.9365 22.092 51.8765 22.248 51.7565 22.392C51.1565 23.136 50.5205 23.928 49.8485 24.768C49.1765 25.584 48.4925 26.448 47.7965 27.36C48.7325 27.192 49.6925 27.06 50.6765 26.964C51.6605 26.892 52.6925 26.856 53.7725 26.856C54.5885 26.856 55.2845 26.868 55.8605 26.892C56.4605 26.916 56.8805 26.928 57.1205 26.928C57.6245 26.952 57.9845 27.012 58.2005 27.108C58.4165 27.204 58.5245 27.408 58.5245 27.72ZM46.2485 28.548C44.2085 28.932 42.3485 29.544 40.6685 30.384C38.9645 31.224 37.5005 32.184 36.2765 33.264C35.0525 34.368 34.1045 35.556 33.4325 36.828C32.7605 38.1 32.4245 39.36 32.4245 40.608C32.4245 40.992 32.4965 41.328 32.6405 41.616C32.7605 41.904 32.9885 42.048 33.3245 42.048C33.6125 42.048 34.0325 41.832 34.5845 41.4C35.1365 40.992 35.7845 40.44 36.5285 39.744C37.2485 39.048 38.0285 38.232 38.8685 37.296C39.7085 36.384 40.5605 35.424 41.4245 34.416C42.2885 33.432 43.1405 32.424 43.9805 31.392C44.7965 30.384 45.5525 29.436 46.2485 28.548ZM75.724 3.132C75.724 3.972 75.352 4.968 74.608 6.12C73.864 7.272 72.892 8.496 71.692 9.792C70.516 11.088 69.184 12.408 67.696 13.752C66.232 15.072 64.756 16.344 63.268 17.568C61.804 18.768 60.4 19.86 59.056 20.844C57.736 21.804 56.644 22.572 55.78 23.148C55.348 24.708 55.132 26.124 55.132 27.396V27.864C55.132 28.032 55.096 28.176 55.024 28.296C54.976 28.44 54.832 28.536 54.592 28.584C54.52 28.608 54.424 28.62 54.304 28.62C54.04 28.62 53.86 28.536 53.764 28.368C53.644 28.224 53.584 28.056 53.584 27.864C53.632 26.256 53.992 24.48 54.664 22.536C55.36 20.592 56.248 18.624 57.328 16.632C58.432 14.64 59.692 12.708 61.108 10.836C62.524 8.964 63.976 7.308 65.464 5.868C66.952 4.404 68.428 3.24 69.892 2.376C71.356 1.488 72.7 1.044 73.924 1.044C74.548 1.044 75.004 1.176 75.292 1.44C75.58 1.704 75.724 2.268 75.724 3.132ZM74.284 3.24C74.284 2.928 74.188 2.652 73.996 2.412C73.828 2.148 73.516 2.016 73.06 2.016C72.1 2.016 71.068 2.328 69.964 2.952C68.884 3.552 67.78 4.368 66.652 5.4C65.548 6.432 64.444 7.632 63.34 9C62.26 10.368 61.24 11.82 60.28 13.356C59.344 14.868 58.504 16.416 57.76 18C57.016 19.584 56.416 21.108 55.96 22.572C56.824 22.02 57.88 21.264 59.128 20.304C60.376 19.344 61.672 18.276 63.016 17.1C64.384 15.924 65.74 14.688 67.084 13.392C68.428 12.072 69.628 10.788 70.684 9.54C71.764 8.268 72.628 7.092 73.276 6.012C73.948 4.908 74.284 3.984 74.284 3.24ZM70.2984 23.328C70.2984 23.424 70.2624 23.496 70.1904 23.544C69.2064 23.952 68.2464 24.312 67.3104 24.624C66.5184 24.888 65.6904 25.14 64.8264 25.38C63.9864 25.62 63.2784 25.74 62.7024 25.74C62.2224 25.74 61.8264 25.632 61.5144 25.416C61.2264 25.176 61.0824 24.876 61.0824 24.516C61.0824 24.18 61.1904 23.868 61.4064 23.58C61.6224 23.292 61.8504 23.04 62.0904 22.824C62.3544 22.608 62.5824 22.428 62.7744 22.284C62.9904 22.14 63.0984 22.056 63.0984 22.032C63.0984 21.984 63.0024 21.948 62.8104 21.924C62.6424 21.9 62.3424 21.852 61.9104 21.78C61.6464 21.732 61.4664 21.66 61.3704 21.564C61.2984 21.444 61.2624 21.324 61.2624 21.204C61.2624 21.036 61.3104 20.892 61.4064 20.772C61.5264 20.628 61.6104 20.532 61.6584 20.484C62.1384 20.172 62.7024 19.86 63.3504 19.548C63.9984 19.236 64.6344 18.96 65.2584 18.72C65.9064 18.48 66.4944 18.288 67.0224 18.144C67.5504 18 67.9224 17.928 68.1384 17.928C68.3784 17.928 68.5944 17.988 68.7864 18.108C69.0024 18.204 69.1104 18.384 69.1104 18.648C69.1104 18.768 69.0504 18.9 68.9304 19.044C68.8104 19.164 68.6664 19.284 68.4984 19.404C68.3304 19.5 68.1504 19.584 67.9584 19.656C67.7664 19.728 67.5984 19.764 67.4544 19.764C67.3344 19.764 67.2144 19.74 67.0944 19.692C66.9984 19.644 66.9504 19.56 66.9504 19.44C66.9504 19.296 67.0104 19.14 67.1304 18.972C67.1784 18.924 67.2024 18.876 67.2024 18.828C67.2024 18.78 67.1424 18.756 67.0224 18.756C66.9744 18.756 66.9024 18.768 66.8064 18.792C66.7104 18.792 66.6024 18.804 66.4824 18.828C66.2904 18.876 66.0144 18.972 65.6544 19.116C65.2944 19.236 64.9344 19.38 64.5744 19.548C64.2144 19.716 63.8904 19.872 63.6024 20.016C63.3144 20.16 63.1344 20.256 63.0624 20.304C62.9664 20.376 62.9184 20.448 62.9184 20.52C62.9184 20.64 62.9904 20.724 63.1344 20.772C63.1584 20.772 63.2424 20.784 63.3864 20.808C63.5304 20.808 63.6864 20.82 63.8544 20.844C64.0224 20.844 64.1784 20.844 64.3224 20.844C64.4904 20.844 64.6104 20.844 64.6824 20.844C64.9464 20.868 65.1024 20.916 65.1504 20.988C65.1984 21.06 65.2224 21.18 65.2224 21.348C65.2224 21.468 65.1984 21.588 65.1504 21.708C65.1024 21.828 64.9464 21.912 64.6824 21.96C64.1784 22.08 63.6864 22.284 63.2064 22.572C62.7504 22.86 62.5224 23.244 62.5224 23.724C62.5224 24.06 62.7024 24.312 63.0624 24.48C63.4464 24.624 63.8064 24.696 64.1424 24.696C64.7664 24.696 65.4264 24.612 66.1224 24.444C66.8184 24.252 67.4664 24.06 68.0664 23.868C68.7624 23.628 69.4464 23.364 70.1184 23.076C70.1664 23.076 70.2024 23.112 70.2264 23.184C70.2744 23.232 70.2984 23.28 70.2984 23.328ZM106.718 7.524C106.718 8.364 106.346 9.444 105.602 10.764C104.858 12.084 103.886 13.512 102.686 15.048C101.51 16.584 100.178 18.168 98.6895 19.8C97.2255 21.408 95.7495 22.944 94.2615 24.408H95.4855C96.3975 24.408 97.4175 24.408 98.5455 24.408C99.6735 24.384 100.754 24.372 101.786 24.372C102.842 24.348 103.766 24.336 104.558 24.336C105.35 24.312 105.854 24.3 106.07 24.3C106.406 24.3 106.574 24.396 106.574 24.588C106.574 24.996 106.358 25.332 105.926 25.596C105.494 25.884 105.038 26.028 104.558 26.028C103.91 26.028 103.142 26.028 102.254 26.028C101.366 26.028 100.406 26.016 99.3735 25.992C98.3415 25.992 97.2495 25.98 96.0975 25.956C94.9455 25.956 93.7935 25.956 92.6415 25.956C91.7055 26.844 90.8055 27.648 89.9415 28.368C89.1015 29.112 88.3335 29.748 87.6375 30.276C87.4695 30.42 87.3015 30.492 87.1335 30.492C87.0615 30.492 86.9415 30.468 86.7735 30.42C86.6055 30.372 86.5215 30.3 86.5215 30.204C86.5215 30.084 86.7495 29.808 87.2055 29.376C87.6855 28.968 88.2375 28.464 88.8615 27.864C89.5095 27.288 90.2175 26.64 90.9855 25.92C89.7615 25.92 88.5735 25.908 87.4215 25.884C86.2695 25.884 85.2015 25.872 84.2175 25.848C83.2335 25.848 82.3575 25.848 81.5895 25.848C80.8455 25.848 80.2575 25.848 79.8255 25.848C79.2255 25.848 78.5895 25.848 77.9175 25.848C77.2455 25.872 76.6215 25.884 76.0455 25.884C75.4695 25.908 74.9775 25.92 74.5695 25.92C74.1375 25.944 73.8735 25.956 73.7775 25.956C73.5855 25.956 73.4895 25.884 73.4895 25.74C73.4895 25.572 73.5495 25.416 73.6695 25.272C73.7895 25.104 73.9335 24.96 74.1015 24.84C74.2695 24.696 74.4495 24.588 74.6415 24.516C74.8095 24.42 74.9415 24.372 75.0375 24.372L92.6055 24.408C93.5415 23.52 94.5135 22.572 95.5215 21.564C96.5295 20.556 97.5135 19.548 98.4735 18.54C99.4335 17.532 100.334 16.536 101.174 15.552C102.038 14.544 102.782 13.584 103.406 12.672C104.054 11.76 104.558 10.92 104.918 10.152C105.302 9.384 105.494 8.724 105.494 8.172C105.494 6.948 105.086 5.904 104.27 5.04C103.478 4.176 102.422 3.48 101.102 2.952C99.7815 2.4 98.2695 2.004 96.5655 1.764C94.8855 1.524 93.1575 1.404 91.3815 1.404C89.5335 1.404 87.7095 1.524 85.9095 1.764C84.1095 2.004 82.5015 2.34 81.0855 2.772C79.6935 3.204 78.5655 3.72 77.7015 4.32C76.8375 4.896 76.4055 5.532 76.4055 6.228C76.4055 6.756 76.7775 7.236 77.5215 7.668C77.6655 7.764 77.7375 7.884 77.7375 8.028C77.7375 8.196 77.6535 8.28 77.4855 8.28C77.1735 8.16 76.8855 8.016 76.6215 7.848C76.4055 7.704 76.2135 7.512 76.0455 7.272C75.8535 7.032 75.7575 6.744 75.7575 6.408C75.7575 5.472 76.2495 4.62 77.2335 3.852C78.2175 3.06 79.5015 2.376 81.0855 1.8C82.6695 1.224 84.4575 0.780001 86.4495 0.468001C88.4655 0.156001 90.4935 0 92.5335 0C94.3575 0 96.1215 0.144 97.8255 0.431999C99.5295 0.696001 101.042 1.128 102.362 1.728C103.682 2.328 104.738 3.108 105.53 4.068C106.322 5.028 106.718 6.18 106.718 7.524ZM129.267 3.132C129.267 3.972 128.895 4.968 128.151 6.12C127.407 7.272 126.435 8.496 125.235 9.792C124.059 11.088 122.727 12.408 121.239 13.752C119.775 15.072 118.299 16.344 116.811 17.568C115.347 18.768 113.943 19.86 112.599 20.844C111.279 21.804 110.187 22.572 109.323 23.148C108.891 24.708 108.675 26.124 108.675 27.396V27.864C108.675 28.032 108.639 28.176 108.567 28.296C108.519 28.44 108.375 28.536 108.135 28.584C108.063 28.608 107.967 28.62 107.847 28.62C107.583 28.62 107.403 28.536 107.307 28.368C107.187 28.224 107.127 28.056 107.127 27.864C107.175 26.256 107.535 24.48 108.207 22.536C108.903 20.592 109.791 18.624 110.871 16.632C111.975 14.64 113.235 12.708 114.651 10.836C116.067 8.964 117.519 7.308 119.007 5.868C120.495 4.404 121.971 3.24 123.435 2.376C124.899 1.488 126.243 1.044 127.467 1.044C128.091 1.044 128.547 1.176 128.835 1.44C129.123 1.704 129.267 2.268 129.267 3.132ZM127.827 3.24C127.827 2.928 127.731 2.652 127.539 2.412C127.371 2.148 127.059 2.016 126.603 2.016C125.643 2.016 124.611 2.328 123.507 2.952C122.427 3.552 121.323 4.368 120.195 5.4C119.091 6.432 117.987 7.632 116.883 9C115.803 10.368 114.783 11.82 113.823 13.356C112.887 14.868 112.047 16.416 111.303 18C110.559 19.584 109.959 21.108 109.503 22.572C110.367 22.02 111.423 21.264 112.671 20.304C113.919 19.344 115.215 18.276 116.559 17.1C117.927 15.924 119.283 14.688 120.627 13.392C121.971 12.072 123.171 10.788 124.227 9.54C125.307 8.268 126.171 7.092 126.819 6.012C127.491 4.908 127.827 3.984 127.827 3.24ZM122.257 16.236C122.257 16.404 122.209 16.596 122.113 16.812C122.017 17.004 121.897 17.196 121.753 17.388C121.609 17.556 121.441 17.7 121.249 17.82C121.081 17.94 120.901 18 120.709 18C120.277 18 120.061 17.808 120.061 17.424C120.061 17.256 120.109 17.076 120.205 16.884C120.301 16.668 120.421 16.476 120.565 16.308C120.709 16.116 120.877 15.96 121.069 15.84C121.261 15.72 121.441 15.66 121.609 15.66C122.041 15.66 122.257 15.852 122.257 16.236ZM124.525 23.328C124.525 23.424 124.489 23.496 124.417 23.544L122.797 24.192C122.557 24.288 122.245 24.42 121.861 24.588C121.501 24.732 121.105 24.876 120.673 25.02C120.241 25.164 119.821 25.296 119.413 25.416C119.005 25.512 118.645 25.56 118.333 25.56C118.021 25.56 117.769 25.5 117.577 25.38C117.409 25.236 117.265 25.08 117.145 24.912C117.049 24.744 116.977 24.576 116.929 24.408C116.905 24.24 116.893 24.108 116.893 24.012C116.893 23.7 116.953 23.424 117.073 23.184C117.193 22.92 117.289 22.728 117.361 22.608C116.977 22.848 116.605 23.064 116.245 23.256C115.909 23.424 115.669 23.532 115.525 23.58C115.357 23.652 115.165 23.724 114.949 23.796C114.757 23.868 114.553 23.952 114.337 24.048C114.289 24.048 114.253 24.024 114.229 23.976C114.181 23.904 114.157 23.844 114.157 23.796C114.157 23.7 114.181 23.64 114.229 23.616C114.421 23.544 114.601 23.472 114.769 23.4C114.961 23.328 115.129 23.256 115.273 23.184C115.825 22.92 116.305 22.656 116.713 22.392C117.193 22.104 117.541 21.852 117.757 21.636C117.997 21.396 118.153 21.18 118.225 20.988C118.297 20.796 118.369 20.652 118.441 20.556C118.513 20.436 118.609 20.376 118.729 20.376C118.897 20.376 119.041 20.424 119.161 20.52C119.305 20.592 119.377 20.724 119.377 20.916C119.377 20.988 119.341 21.084 119.269 21.204C119.221 21.276 119.137 21.408 119.017 21.6C118.897 21.768 118.777 21.972 118.657 22.212C118.561 22.428 118.465 22.668 118.369 22.932C118.297 23.196 118.261 23.448 118.261 23.688C118.261 23.952 118.357 24.18 118.549 24.372C118.741 24.564 119.041 24.66 119.449 24.66C119.713 24.66 120.001 24.624 120.313 24.552C120.649 24.456 120.973 24.36 121.285 24.264C121.621 24.144 121.921 24.036 122.185 23.94C122.473 23.82 122.689 23.736 122.833 23.688C123.313 23.496 123.673 23.352 123.913 23.256C124.057 23.184 124.201 23.124 124.345 23.076C124.393 23.076 124.429 23.112 124.453 23.184C124.501 23.232 124.525 23.28 124.525 23.328ZM137.274 27.72C137.274 28.032 137.118 28.212 136.806 28.26C136.518 28.332 136.242 28.368 135.978 28.368C135.882 28.368 135.582 28.356 135.078 28.332C134.574 28.308 133.986 28.284 133.314 28.26C132.666 28.26 131.97 28.248 131.226 28.224C130.506 28.2 129.858 28.188 129.282 28.188C128.658 28.188 128.046 28.2 127.446 28.224C126.87 28.272 126.294 28.344 125.718 28.44C124.35 30.168 122.97 31.908 121.578 33.66C120.162 35.436 118.818 37.02 117.546 38.412C116.25 39.828 115.074 40.98 114.018 41.868C112.938 42.756 112.074 43.2 111.426 43.2C110.874 43.2 110.442 43.02 110.13 42.66C109.818 42.324 109.662 41.88 109.662 41.328C109.662 40.176 110.01 38.904 110.706 37.512C111.402 36.144 112.434 34.8 113.802 33.48C115.17 32.184 116.862 30.996 118.878 29.916C120.894 28.86 123.21 28.056 125.826 27.504C126.546 26.544 127.122 25.752 127.554 25.128C128.01 24.48 128.238 24.096 128.238 23.976C128.238 23.88 128.202 23.832 128.13 23.832C128.058 23.832 127.962 23.868 127.842 23.94C127.698 24.012 127.506 24.108 127.266 24.228C127.05 24.348 126.798 24.468 126.51 24.588C126.222 24.684 125.922 24.768 125.61 24.84C125.322 24.912 125.046 24.948 124.782 24.948C124.446 24.948 124.146 24.864 123.882 24.696C123.642 24.504 123.522 24.204 123.522 23.796C123.522 23.004 123.858 22.26 124.53 21.564C125.202 20.868 125.994 20.268 126.906 19.764C127.818 19.26 128.73 18.864 129.642 18.576C130.578 18.264 131.286 18.108 131.766 18.108C132.054 18.108 132.342 18.18 132.63 18.324C132.918 18.468 133.074 18.744 133.098 19.152C133.098 19.296 133.014 19.476 132.846 19.692C132.678 19.884 132.474 20.064 132.234 20.232C131.994 20.4 131.754 20.544 131.514 20.664C131.298 20.784 131.118 20.844 130.974 20.844C130.83 20.844 130.722 20.796 130.65 20.7C130.578 20.604 130.542 20.496 130.542 20.376C130.542 20.232 130.602 20.124 130.722 20.052C130.77 20.004 130.842 19.944 130.938 19.872C131.058 19.8 131.178 19.728 131.298 19.656C131.49 19.512 131.586 19.332 131.586 19.116C131.586 18.9 131.442 18.792 131.154 18.792C130.65 18.792 130.062 18.948 129.39 19.26C128.718 19.548 128.07 19.92 127.446 20.376C126.846 20.808 126.33 21.288 125.898 21.816C125.466 22.344 125.25 22.836 125.25 23.292C125.25 23.508 125.334 23.664 125.502 23.76C125.67 23.856 125.85 23.904 126.042 23.904C126.378 23.904 126.738 23.832 127.122 23.688C127.506 23.544 127.878 23.376 128.238 23.184C128.622 22.968 128.982 22.74 129.318 22.5C129.678 22.26 129.978 22.044 130.218 21.852C130.314 21.756 130.41 21.708 130.506 21.708C130.626 21.708 130.686 21.78 130.686 21.924C130.686 22.092 130.626 22.248 130.506 22.392C129.906 23.136 129.27 23.928 128.598 24.768C127.926 25.584 127.242 26.448 126.546 27.36C127.482 27.192 128.442 27.06 129.426 26.964C130.41 26.892 131.442 26.856 132.522 26.856C133.338 26.856 134.034 26.868 134.61 26.892C135.21 26.916 135.63 26.928 135.87 26.928C136.374 26.952 136.734 27.012 136.95 27.108C137.166 27.204 137.274 27.408 137.274 27.72ZM124.998 28.548C122.958 28.932 121.098 29.544 119.418 30.384C117.714 31.224 116.25 32.184 115.026 33.264C113.802 34.368 112.854 35.556 112.182 36.828C111.51 38.1 111.174 39.36 111.174 40.608C111.174 40.992 111.246 41.328 111.39 41.616C111.51 41.904 111.738 42.048 112.074 42.048C112.362 42.048 112.782 41.832 113.334 41.4C113.886 40.992 114.534 40.44 115.278 39.744C115.998 39.048 116.778 38.232 117.618 37.296C118.458 36.384 119.31 35.424 120.174 34.416C121.038 33.432 121.89 32.424 122.73 31.392C123.546 30.384 124.302 29.436 124.998 28.548ZM158.758 2.916C158.758 3.636 158.494 4.44 157.966 5.328C157.438 6.216 156.73 7.14 155.842 8.1C154.954 9.036 153.91 10.008 152.71 11.016C151.534 12.024 150.286 13.02 148.966 14.004C147.67 14.964 146.338 15.9 144.97 16.812C143.626 17.7 142.33 18.54 141.082 19.332C139.834 20.1 138.682 20.784 137.626 21.384C136.57 21.984 135.694 22.464 134.998 22.824C134.782 23.328 134.674 23.736 134.674 24.048C134.674 24.24 134.758 24.336 134.926 24.336C135.022 24.336 135.154 24.3 135.322 24.228C135.802 24.012 136.306 23.772 136.834 23.508C137.362 23.22 137.854 22.944 138.31 22.68C138.79 22.416 139.198 22.188 139.534 21.996C139.87 21.804 140.074 21.684 140.146 21.636C140.29 21.564 140.434 21.528 140.578 21.528C140.722 21.528 140.794 21.576 140.794 21.672C140.794 21.768 140.722 22.008 140.578 22.392C140.434 22.752 140.362 23.124 140.362 23.508C140.362 23.82 140.458 24.096 140.65 24.336C140.842 24.552 141.226 24.66 141.802 24.66C142.066 24.66 142.354 24.624 142.666 24.552C143.002 24.456 143.326 24.36 143.638 24.264C143.974 24.144 144.274 24.036 144.538 23.94C144.826 23.82 145.042 23.736 145.186 23.688C145.666 23.496 146.026 23.352 146.266 23.256C146.41 23.184 146.554 23.124 146.698 23.076C146.746 23.076 146.782 23.112 146.806 23.184C146.854 23.232 146.878 23.28 146.878 23.328C146.878 23.424 146.842 23.496 146.77 23.544L145.15 24.192C144.91 24.288 144.598 24.42 144.214 24.588C143.854 24.732 143.458 24.876 143.026 25.02C142.594 25.164 142.174 25.296 141.766 25.416C141.358 25.512 140.998 25.56 140.686 25.56C140.062 25.56 139.642 25.416 139.426 25.128C139.234 24.84 139.138 24.516 139.138 24.156C139.138 23.94 139.15 23.736 139.174 23.544C139.222 23.328 139.258 23.124 139.282 22.932C139.282 22.884 139.258 22.86 139.21 22.86C139.138 22.86 139.09 22.872 139.066 22.896C138.994 22.92 138.694 23.076 138.166 23.364C137.662 23.652 137.086 23.964 136.438 24.3C135.814 24.612 135.202 24.9 134.602 25.164C134.026 25.428 133.606 25.56 133.342 25.56C133.15 25.56 133.03 25.512 132.982 25.416C132.934 25.32 132.91 25.224 132.91 25.128C132.91 24.816 133.126 24.24 133.558 23.4C134.014 22.536 134.626 21.516 135.394 20.34C136.162 19.14 137.074 17.832 138.13 16.416C139.186 14.976 140.314 13.548 141.514 12.132C142.738 10.692 144.01 9.3 145.33 7.956C146.674 6.612 148.018 5.424 149.362 4.392C150.706 3.336 152.014 2.496 153.286 1.872C154.582 1.248 155.794 0.936001 156.922 0.936001C157.57 0.936001 158.038 1.128 158.326 1.512C158.614 1.896 158.758 2.364 158.758 2.916ZM157.102 3.132C157.102 2.796 156.994 2.484 156.778 2.196C156.586 1.884 156.286 1.728 155.878 1.728C154.942 1.728 153.838 2.1 152.566 2.844C151.318 3.588 150.01 4.56 148.642 5.76C147.274 6.936 145.882 8.28 144.466 9.792C143.074 11.28 141.766 12.792 140.542 14.328C139.342 15.84 138.262 17.292 137.302 18.684C136.366 20.076 135.67 21.264 135.214 22.248C136.534 21.6 137.986 20.784 139.57 19.8C141.178 18.816 142.786 17.748 144.394 16.596C146.026 15.42 147.598 14.208 149.11 12.96C150.646 11.688 152.002 10.452 153.178 9.252C154.354 8.052 155.302 6.924 156.022 5.868C156.742 4.812 157.102 3.9 157.102 3.132ZM176.694 12.204C176.646 12.396 176.55 12.54 176.406 12.636C176.262 12.708 175.986 12.768 175.578 12.816C175.458 12.816 175.014 12.828 174.246 12.852C173.478 12.852 172.458 12.864 171.186 12.888C169.938 12.912 168.462 12.936 166.758 12.96C165.054 12.96 163.206 12.96 161.214 12.96C160.11 13.944 158.934 14.928 157.686 15.912C156.438 16.896 155.214 17.82 154.014 18.684C152.814 19.548 151.686 20.34 150.63 21.06C149.574 21.756 148.674 22.332 147.93 22.788C147.522 23.7 147.21 24.564 146.994 25.38C146.778 26.172 146.67 26.88 146.67 27.504C146.67 27.672 146.634 27.816 146.562 27.936C146.514 28.08 146.37 28.176 146.13 28.224C146.058 28.248 145.962 28.26 145.842 28.26C145.578 28.26 145.398 28.176 145.302 28.008C145.182 27.864 145.122 27.696 145.122 27.504C145.146 27 145.362 26.232 145.77 25.2C146.202 24.168 146.778 22.992 147.498 21.672C148.218 20.328 149.058 18.912 150.018 17.424C150.978 15.912 151.998 14.436 153.078 12.996H141.234C140.97 12.996 140.718 12.984 140.478 12.96C140.238 12.912 140.118 12.792 140.118 12.6C140.118 12.552 140.154 12.48 140.226 12.384C140.274 12.264 140.322 12.156 140.37 12.06C140.394 12.012 140.454 11.952 140.55 11.88C140.718 11.76 141.03 11.7 141.486 11.7H145.986C147.282 11.7 148.65 11.712 150.09 11.736C151.53 11.736 152.85 11.736 154.05 11.736C154.962 10.584 155.886 9.504 156.822 8.496C157.782 7.488 158.73 6.612 159.666 5.868C160.602 5.1 161.514 4.5 162.402 4.068C163.29 3.612 164.13 3.384 164.922 3.384C165.546 3.384 166.002 3.516 166.29 3.78C166.578 4.044 166.722 4.608 166.722 5.472C166.722 6.288 166.326 7.236 165.534 8.316C164.766 9.372 163.77 10.5 162.546 11.7C163.866 11.676 165.258 11.652 166.722 11.628C168.21 11.604 169.59 11.592 170.862 11.592C172.158 11.568 173.238 11.556 174.102 11.556C174.99 11.532 175.482 11.52 175.578 11.52C175.842 11.52 176.094 11.592 176.334 11.736C176.574 11.856 176.694 12.012 176.694 12.204ZM165.282 5.58C165.282 5.268 165.186 4.992 164.994 4.752C164.826 4.488 164.514 4.356 164.058 4.356C163.506 4.356 162.87 4.548 162.15 4.932C161.43 5.316 160.674 5.844 159.882 6.516C159.09 7.164 158.262 7.944 157.398 8.856C156.534 9.744 155.682 10.704 154.842 11.736C155.658 11.736 156.366 11.736 156.966 11.736C157.566 11.736 158.118 11.736 158.622 11.736C159.126 11.736 159.594 11.736 160.026 11.736C160.482 11.712 160.938 11.7 161.394 11.7C162.546 10.524 163.482 9.408 164.202 8.352C164.922 7.272 165.282 6.348 165.282 5.58ZM153.87 12.996C152.742 14.46 151.686 15.972 150.702 17.532C149.742 19.092 148.926 20.592 148.254 22.032C148.974 21.6 149.814 21.06 150.774 20.412C151.734 19.764 152.742 19.044 153.798 18.252C154.878 17.436 155.958 16.584 157.038 15.696C158.118 14.784 159.138 13.872 160.098 12.96L153.87 12.996Z" fill="white"/>
</svg>
