<svg xmlns="http://www.w3.org/2000/svg" width="177" height="44" fill="none"><path fill="#fff" d="M34.344 25.416c-.048.288-.156.48-.324.576-.168.096-.396.144-.684.144-.408 0-1.092-.012-2.052-.036h-3.096c-1.632 0-3.24.024-4.824.072-1.584.072-3.24.144-4.968.216a320.05 320.05 0 0 1-5.4.18c-1.896.072-3.972.108-6.228.108-1.176 0-2.1-.024-2.772-.072-.672-.048-1.14-.096-1.404-.144-.96-.216-1.632-.552-2.016-1.008C.192 24.996 0 24.492 0 23.94c0-.912.264-1.752.792-2.52.528-.792 1.224-1.512 2.088-2.16a17.075 17.075 0 0 1 2.988-1.836 35.044 35.044 0 0 1 3.492-1.548 58.889 58.889 0 0 1 3.636-1.224c1.224-.36 2.34-.672 3.348-.936l2.664-.684c.768-.192 1.308-.348 1.62-.468 1.056-.384 1.584-.66 1.584-.828 0-.144-.156-.228-.468-.252a4.526 4.526 0 0 0-.72-.072c-.768 0-1.452.024-2.052.072-.576.024-1.14.06-1.692.108-.528.024-1.08.072-1.656.144-.552.048-1.212.096-1.98.144-.744.024-1.62.06-2.628.108-.984.024-2.184.036-3.6.036-.432 0-.852-.048-1.26-.144a5.195 5.195 0 0 1-1.116-.468 3.398 3.398 0 0 1-.792-.756 1.775 1.775 0 0 1-.288-1.008c0-1.008.456-1.932 1.368-2.772.936-.84 2.148-1.596 3.636-2.268 1.488-.672 3.168-1.26 5.04-1.764a59.22 59.22 0 0 1 5.616-1.296 70.067 70.067 0 0 1 5.436-.756C26.784.624 28.236.54 29.412.54c1.368 0 2.472.06 3.312.18.864.096 1.296.324 1.296.684 0 .168-.108.336-.324.504a4.742 4.742 0 0 1-.72.432c-.288.12-.588.216-.9.288a3.625 3.625 0 0 1-.792.108c-.096 0-.144-.024-.144-.072 0-.024.012-.06.036-.108a.592.592 0 0 0 .036-.18c0-.072-.036-.132-.108-.18-.072-.072-.216-.108-.432-.108-2.208 0-4.38.072-6.516.216-2.112.144-4.116.36-6.012.648-1.872.288-3.6.636-5.184 1.044-1.584.384-2.952.828-4.104 1.332-1.128.504-2.016 1.056-2.664 1.656-.624.576-.936 1.188-.936 1.836 0 .384.156.684.468.9.336.192.732.336 1.188.432.456.096.924.156 1.404.18.48.024.876.036 1.188.036.864 0 1.764-.024 2.7-.072.936-.072 1.86-.132 2.772-.18a121.53 121.53 0 0 1 2.628-.18 28.789 28.789 0 0 1 2.376-.108c1.056 0 1.896.096 2.52.288.648.168.972.504.972 1.008 0 .408-.24.78-.72 1.116-.48.336-1.02.588-1.62.756-1.392.384-2.856.792-4.392 1.224-1.512.408-3 .852-4.464 1.332-1.44.456-2.82.96-4.14 1.512-1.296.528-2.448 1.104-3.456 1.728-.984.6-1.776 1.248-2.376 1.944-.576.672-.864 1.404-.864 2.196.024.36.156.672.396.936.192.24.492.468.9.684.408.192.996.288 1.764.288 2.184 0 4.26-.024 6.228-.072a5377.359 5377.359 0 0 0 11.268-.288c1.8-.048 3.6-.072 5.4-.072h3.456c1.056 0 1.752.024 2.088.072.576.048.948.168 1.116.36.192.168.288.36.288.576Zm11.397-2.088a.242.242 0 0 1-.108.216l-1.62.648c-.24.096-.552.228-.936.396-.36.144-.756.288-1.188.432-.432.144-.852.276-1.26.396a4.787 4.787 0 0 1-1.08.144c-.504 0-.756-.156-.756-.468 0-.096.012-.216.036-.36.048-.168.132-.336.252-.504a7.876 7.876 0 0 1-.792.504c-.336.168-.696.336-1.08.504-.384.144-.78.276-1.188.396-.384.12-.732.18-1.044.18-.456 0-.78-.096-.972-.288a.785.785 0 0 1-.324-.648c0-.456.24-1.02.72-1.692.48-.672 1.092-1.308 1.836-1.908a11.881 11.881 0 0 1 2.448-1.584c.888-.432 1.74-.648 2.556-.648.408 0 .696.072.864.216.168.144.252.348.252.612 0 .384-.18.732-.54 1.044-.336.312-.66.564-.972.756a.553.553 0 0 1-.216.072.553.553 0 0 1-.216-.072.345.345 0 0 1-.108-.252c0-.12.096-.3.288-.54a3.2 3.2 0 0 0 .324-.396c.144-.192.216-.348.216-.468 0-.096-.048-.168-.144-.216-.072-.072-.24-.108-.504-.108-.408 0-.912.156-1.512.468-.6.288-1.176.66-1.728 1.116a9.833 9.833 0 0 0-1.44 1.368c-.384.48-.576.9-.576 1.26 0 .264.108.468.324.612.216.12.456.18.72.18.264 0 .564-.06.9-.18.336-.12.66-.252.972-.396.312-.144.588-.288.828-.432.264-.168.432-.288.504-.36l.216-.216c.096-.096.192-.144.288-.144.048 0 .12.024.216.072.096.048.144.132.144.252-.12.192-.204.36-.252.504a1.261 1.261 0 0 0-.072.396c0 .312.216.468.648.468.264 0 .552-.036.864-.108.336-.096.66-.192.972-.288l.9-.324c.288-.12.504-.204.648-.252l1.08-.432c.144-.072.288-.132.432-.18.048 0 .084.036.108.108.048.048.072.096.072.144Zm12.784 4.392c0 .312-.157.492-.468.54a3.413 3.413 0 0 1-.829.108c-.096 0-.395-.012-.9-.036-.504-.024-1.092-.048-1.764-.072-.648 0-1.343-.012-2.087-.036a58.9 58.9 0 0 0-1.944-.036c-.625 0-1.236.012-1.837.036-.575.048-1.151.12-1.727.216a3803.084 3803.084 0 0 1-4.14 5.22 93.206 93.206 0 0 1-4.032 4.752c-1.296 1.416-2.472 2.568-3.528 3.456-1.08.888-1.944 1.332-2.593 1.332-.552 0-.984-.18-1.296-.54-.311-.336-.467-.78-.467-1.332 0-1.152.348-2.424 1.043-3.816.697-1.368 1.729-2.712 3.097-4.032 1.367-1.296 3.06-2.484 5.076-3.564 2.016-1.056 4.332-1.86 6.948-2.412a80.5 80.5 0 0 0 1.727-2.376c.456-.648.684-1.032.684-1.152 0-.096-.035-.144-.108-.144-.072 0-.168.036-.288.108l-.575.288a7.53 7.53 0 0 1-.757.36c-.288.096-.587.18-.9.252a3.413 3.413 0 0 1-.828.108 1.64 1.64 0 0 1-.9-.252c-.24-.192-.36-.492-.36-.9 0-.792.337-1.536 1.009-2.232a9.992 9.992 0 0 1 2.376-1.8c.912-.504 1.824-.9 2.736-1.188.935-.312 1.643-.468 2.123-.468.288 0 .577.072.864.216.288.144.444.42.468.828 0 .144-.084.324-.252.54a3.391 3.391 0 0 1-.611.54c-.24.168-.48.312-.72.432-.217.12-.397.18-.54.18-.145 0-.253-.048-.325-.144a.527.527 0 0 1-.108-.324c0-.144.06-.252.18-.324.048-.048.12-.108.216-.18l.36-.216c.192-.144.288-.324.288-.54 0-.216-.143-.324-.431-.324-.505 0-1.093.156-1.764.468-.672.288-1.32.66-1.944 1.116-.6.432-1.117.912-1.549 1.44-.431.528-.648 1.02-.648 1.476 0 .216.084.372.252.468.168.096.348.144.54.144.337 0 .697-.072 1.08-.216a9.331 9.331 0 0 0 1.117-.504c.384-.216.744-.444 1.08-.684.36-.24.66-.456.9-.648.096-.096.191-.144.288-.144.12 0 .18.072.18.216 0 .168-.06.324-.18.468-.6.744-1.236 1.536-1.908 2.376a89.326 89.326 0 0 0-2.052 2.592c.936-.168 1.896-.3 2.88-.396a42.474 42.474 0 0 1 3.096-.108c.816 0 1.511.012 2.087.036.6.024 1.02.036 1.26.036.505.024.864.084 1.08.18.216.096.325.3.325.612Zm-12.276.828c-2.04.384-3.9.996-5.58 1.836-1.704.84-3.168 1.8-4.392 2.88-1.224 1.104-2.172 2.292-2.845 3.564-.672 1.272-1.008 2.532-1.008 3.78 0 .384.072.72.217 1.008.12.288.348.432.684.432.287 0 .707-.216 1.26-.648.551-.408 1.2-.96 1.944-1.656.72-.696 1.5-1.512 2.34-2.448.84-.912 1.691-1.872 2.556-2.88.864-.984 1.716-1.992 2.556-3.024a231.848 231.848 0 0 0 2.267-2.844ZM75.724 3.132c0 .84-.372 1.836-1.116 2.988-.744 1.152-1.716 2.376-2.916 3.672a56.835 56.835 0 0 1-3.996 3.96 128.87 128.87 0 0 1-4.428 3.816 97.939 97.939 0 0 1-4.212 3.276c-1.32.96-2.412 1.728-3.276 2.304-.432 1.56-.648 2.976-.648 4.248v.468a.824.824 0 0 1-.108.432c-.048.144-.192.24-.432.288a.936.936 0 0 1-.288.036c-.264 0-.444-.084-.54-.252a.763.763 0 0 1-.18-.504c.048-1.608.408-3.384 1.08-5.328a42.381 42.381 0 0 1 2.664-5.904 48.885 48.885 0 0 1 3.78-5.796c1.416-1.872 2.868-3.528 4.356-4.968 1.488-1.464 2.964-2.628 4.428-3.492 1.464-.888 2.808-1.332 4.032-1.332.624 0 1.08.132 1.368.396.288.264.432.828.432 1.692Zm-1.44.108c0-.312-.096-.588-.288-.828-.168-.264-.48-.396-.936-.396-.96 0-1.992.312-3.096.936-1.08.6-2.184 1.416-3.312 2.448A35.055 35.055 0 0 0 63.34 9a48.532 48.532 0 0 0-3.06 4.356A45.857 45.857 0 0 0 57.76 18a35.927 35.927 0 0 0-1.8 4.572c.864-.552 1.92-1.308 3.168-2.268a80.03 80.03 0 0 0 3.888-3.204 96.33 96.33 0 0 0 4.068-3.708 57.421 57.421 0 0 0 3.6-3.852c1.08-1.272 1.944-2.448 2.592-3.528.672-1.104 1.008-2.028 1.008-2.772Zm-3.986 20.088a.242.242 0 0 1-.108.216c-.984.408-1.944.768-2.88 1.08-.792.264-1.62.516-2.484.756-.84.24-1.548.36-2.124.36-.48 0-.876-.108-1.188-.324a1.125 1.125 0 0 1-.432-.9c0-.336.108-.648.324-.936a5.25 5.25 0 0 1 .684-.756c.264-.216.492-.396.684-.54.216-.144.324-.228.324-.252 0-.048-.096-.084-.288-.108a46.315 46.315 0 0 1-.9-.144c-.264-.048-.444-.12-.54-.216a.695.695 0 0 1 .036-.792c.12-.144.204-.24.252-.288.48-.312 1.044-.624 1.692-.936a25.527 25.527 0 0 1 1.908-.828 21.19 21.19 0 0 1 1.764-.576c.528-.144.9-.216 1.116-.216.24 0 .456.06.648.18.216.096.324.276.324.54 0 .12-.06.252-.18.396-.12.12-.264.24-.432.36-.168.096-.348.18-.54.252-.192.072-.36.108-.504.108a.963.963 0 0 1-.36-.072c-.096-.048-.144-.132-.144-.252 0-.144.06-.3.18-.468.048-.048.072-.096.072-.144 0-.048-.06-.072-.18-.072a.985.985 0 0 0-.216.036c-.096 0-.204.012-.324.036a7.036 7.036 0 0 0-.828.288c-.36.12-.72.264-1.08.432-.36.168-.684.324-.972.468-.288.144-.468.24-.54.288-.096.072-.144.144-.144.216 0 .12.072.204.216.252.024 0 .108.012.252.036.144 0 .3.012.468.036H64.682c.264.024.42.072.468.144.048.072.072.192.072.36 0 .12-.024.24-.072.36-.048.12-.204.204-.468.252-.504.12-.996.324-1.476.612-.456.288-.684.672-.684 1.152 0 .336.18.588.54.756.384.144.744.216 1.08.216.624 0 1.284-.084 1.98-.252a50.192 50.192 0 0 0 1.944-.576c.696-.24 1.38-.504 2.052-.792.048 0 .084.036.108.108.048.048.072.096.072.144Zm36.42-15.804c0 .84-.372 1.92-1.116 3.24-.744 1.32-1.716 2.748-2.916 4.284a72.406 72.406 0 0 1-3.997 4.752 116.286 116.286 0 0 1-4.427 4.608h4.284c1.127-.024 2.208-.036 3.24-.036 1.056-.024 1.98-.036 2.772-.036a68.095 68.095 0 0 1 1.512-.036c.336 0 .504.096.504.288 0 .408-.216.744-.648 1.008a2.426 2.426 0 0 1-1.368.432h-2.304c-.888 0-1.848-.012-2.88-.036-1.032 0-2.124-.012-3.276-.036H92.64a56.456 56.456 0 0 1-2.7 2.412 39.89 39.89 0 0 1-2.303 1.908c-.169.144-.337.216-.505.216-.072 0-.191-.024-.36-.072-.167-.048-.251-.12-.251-.216 0-.12.227-.396.683-.828.48-.408 1.032-.912 1.657-1.512.648-.576 1.356-1.224 2.124-1.944-1.225 0-2.413-.012-3.565-.036-1.152 0-2.22-.012-3.204-.036H77.918c-.672.024-1.297.036-1.873.036-.576.024-1.067.036-1.475.036-.432.024-.696.036-.792.036-.193 0-.288-.072-.288-.216 0-.168.06-.324.18-.468.12-.168.263-.312.431-.432.168-.144.349-.252.54-.324.168-.096.3-.144.396-.144l17.569.036a173.316 173.316 0 0 0 5.868-5.868 74.122 74.122 0 0 0 2.7-2.988 33.763 33.763 0 0 0 2.232-2.88c.648-.912 1.152-1.752 1.512-2.52.384-.768.576-1.428.576-1.98 0-1.224-.408-2.268-1.224-3.132-.792-.864-1.848-1.56-3.168-2.088-1.32-.552-2.833-.948-4.537-1.188a36.62 36.62 0 0 0-5.183-.36c-1.849 0-3.672.12-5.473.36-1.8.24-3.408.576-4.824 1.008-1.391.432-2.52.948-3.383 1.548-.864.576-1.296 1.212-1.296 1.908 0 .528.371 1.008 1.115 1.44.144.096.216.216.216.36 0 .168-.084.252-.251.252a4.84 4.84 0 0 1-.865-.432 2.19 2.19 0 0 1-.575-.576 1.34 1.34 0 0 1-.289-.864c0-.936.492-1.788 1.477-2.556.984-.792 2.267-1.476 3.852-2.052C82.67 1.224 84.456.78 86.45.468A39.722 39.722 0 0 1 92.534 0c1.823 0 3.587.144 5.291.432 1.704.264 3.217.696 4.537 1.296 1.32.6 2.376 1.38 3.168 2.34.792.96 1.188 2.112 1.188 3.456Zm22.549-4.392c0 .84-.372 1.836-1.116 2.988-.744 1.152-1.716 2.376-2.916 3.672a56.835 56.835 0 0 1-3.996 3.96 128.87 128.87 0 0 1-4.428 3.816 97.939 97.939 0 0 1-4.212 3.276c-1.32.96-2.412 1.728-3.276 2.304-.432 1.56-.648 2.976-.648 4.248v.468a.824.824 0 0 1-.108.432c-.048.144-.192.24-.432.288a.936.936 0 0 1-.288.036c-.264 0-.444-.084-.54-.252a.763.763 0 0 1-.18-.504c.048-1.608.408-3.384 1.08-5.328a42.381 42.381 0 0 1 2.664-5.904 48.885 48.885 0 0 1 3.78-5.796c1.416-1.872 2.868-3.528 4.356-4.968 1.488-1.464 2.964-2.628 4.428-3.492 1.464-.888 2.808-1.332 4.032-1.332.624 0 1.08.132 1.368.396.288.264.432.828.432 1.692Zm-1.44.108c0-.312-.096-.588-.288-.828-.168-.264-.48-.396-.936-.396-.96 0-1.992.312-3.096.936-1.08.6-2.184 1.416-3.312 2.448a35.055 35.055 0 0 0-3.312 3.6 48.532 48.532 0 0 0-3.06 4.356 45.857 45.857 0 0 0-2.52 4.644 35.927 35.927 0 0 0-1.8 4.572c.864-.552 1.92-1.308 3.168-2.268a80.03 80.03 0 0 0 3.888-3.204 96.33 96.33 0 0 0 4.068-3.708 57.421 57.421 0 0 0 3.6-3.852c1.08-1.272 1.944-2.448 2.592-3.528.672-1.104 1.008-2.028 1.008-2.772Zm-5.57 12.996c0 .168-.048.36-.144.576a3.783 3.783 0 0 1-.36.576 2.183 2.183 0 0 1-.504.432.912.912 0 0 1-.54.18c-.432 0-.648-.192-.648-.576 0-.168.048-.348.144-.54.096-.216.216-.408.36-.576.144-.192.312-.348.504-.468.192-.12.372-.18.54-.18.432 0 .648.192.648.576Zm2.268 7.092a.242.242 0 0 1-.108.216l-1.62.648c-.24.096-.552.228-.936.396-.36.144-.756.288-1.188.432-.432.144-.852.276-1.26.396a4.787 4.787 0 0 1-1.08.144c-.312 0-.564-.06-.756-.18a2.632 2.632 0 0 1-.432-.468 2.278 2.278 0 0 1-.216-.504 2.976 2.976 0 0 1-.036-.396c0-.312.06-.588.18-.828.12-.264.216-.456.288-.576-.384.24-.756.456-1.116.648a6.48 6.48 0 0 1-.72.324c-.168.072-.36.144-.576.216-.192.072-.396.156-.612.252-.048 0-.084-.024-.108-.072a.35.35 0 0 1-.072-.18c0-.096.024-.156.072-.18.192-.072.372-.144.54-.216.192-.072.36-.144.504-.216a12.943 12.943 0 0 0 1.44-.792c.48-.288.828-.54 1.044-.756.24-.24.396-.456.468-.648.072-.192.144-.336.216-.432.072-.12.168-.18.288-.18a.67.67 0 0 1 .432.144c.144.072.216.204.216.396 0 .072-.036.168-.108.288-.048.072-.132.204-.252.396a4.59 4.59 0 0 0-.36.612c-.096.216-.192.456-.288.72a2.873 2.873 0 0 0-.108.756c0 .264.096.492.288.684.192.192.492.288.9.288.264 0 .552-.036.864-.108.336-.096.66-.192.972-.288l.9-.324c.288-.12.504-.204.648-.252l1.08-.432c.144-.072.288-.132.432-.18.048 0 .084.036.108.108.048.048.072.096.072.144Zm12.749 4.392c0 .312-.156.492-.468.54a3.413 3.413 0 0 1-.828.108c-.096 0-.396-.012-.9-.036-.504-.024-1.092-.048-1.764-.072-.648 0-1.344-.012-2.088-.036a58.9 58.9 0 0 0-1.944-.036c-.624 0-1.236.012-1.836.036-.576.048-1.152.12-1.728.216a3803.084 3803.084 0 0 1-4.14 5.22 93.206 93.206 0 0 1-4.032 4.752c-1.296 1.416-2.472 2.568-3.528 3.456-1.08.888-1.944 1.332-2.592 1.332-.552 0-.984-.18-1.296-.54-.312-.336-.468-.78-.468-1.332 0-1.152.348-2.424 1.044-3.816.696-1.368 1.728-2.712 3.096-4.032 1.368-1.296 3.06-2.484 5.076-3.564 2.016-1.056 4.332-1.86 6.948-2.412a80.5 80.5 0 0 0 1.728-2.376c.456-.648.684-1.032.684-1.152 0-.096-.036-.144-.108-.144-.072 0-.168.036-.288.108l-.576.288a7.53 7.53 0 0 1-.756.36c-.288.096-.588.18-.9.252a3.413 3.413 0 0 1-.828.108 1.64 1.64 0 0 1-.9-.252c-.24-.192-.36-.492-.36-.9 0-.792.336-1.536 1.008-2.232a9.992 9.992 0 0 1 2.376-1.8c.912-.504 1.824-.9 2.736-1.188.936-.312 1.644-.468 2.124-.468.288 0 .576.072.864.216.288.144.444.42.468.828 0 .144-.084.324-.252.54a3.391 3.391 0 0 1-.612.54c-.24.168-.48.312-.72.432-.216.12-.396.18-.54.18-.144 0-.252-.048-.324-.144a.527.527 0 0 1-.108-.324c0-.144.06-.252.18-.324.048-.048.12-.108.216-.18l.36-.216c.192-.144.288-.324.288-.54 0-.216-.144-.324-.432-.324-.504 0-1.092.156-1.764.468-.672.288-1.32.66-1.944 1.116-.6.432-1.116.912-1.548 1.44-.432.528-.648 1.02-.648 1.476 0 .216.084.372.252.468.168.096.348.144.54.144.336 0 .696-.072 1.08-.216a9.331 9.331 0 0 0 1.116-.504c.384-.216.744-.444 1.08-.684.36-.24.66-.456.9-.648.096-.096.192-.144.288-.144.12 0 .18.072.18.216 0 .168-.06.324-.18.468-.6.744-1.236 1.536-1.908 2.376a89.326 89.326 0 0 0-2.052 2.592c.936-.168 1.896-.3 2.88-.396a42.474 42.474 0 0 1 3.096-.108c.816 0 1.512.012 2.088.036.6.024 1.02.036 1.26.036.504.024.864.084 1.08.18.216.096.324.3.324.612Zm-12.276.828c-2.04.384-3.9.996-5.58 1.836-1.704.84-3.168 1.8-4.392 2.88-1.224 1.104-2.172 2.292-2.844 3.564-.672 1.272-1.008 2.532-1.008 3.78 0 .384.072.72.216 1.008.12.288.348.432.684.432.288 0 .708-.216 1.26-.648.552-.408 1.2-.96 1.944-1.656.72-.696 1.5-1.512 2.34-2.448.84-.912 1.692-1.872 2.556-2.88.864-.984 1.716-1.992 2.556-3.024a231.848 231.848 0 0 0 2.268-2.844Zm33.76-25.632c0 .72-.264 1.524-.792 2.412-.528.888-1.236 1.812-2.124 2.772a38.113 38.113 0 0 1-3.132 2.916 70.444 70.444 0 0 1-3.744 2.988 98.575 98.575 0 0 1-3.996 2.808 252.34 252.34 0 0 1-3.888 2.52c-1.248.768-2.4 1.452-3.456 2.052-1.056.6-1.932 1.08-2.628 1.44-.216.504-.324.912-.324 1.224 0 .192.084.288.252.288.096 0 .228-.036.396-.108.48-.216.984-.456 1.512-.72.528-.288 1.02-.564 1.476-.828.48-.264.888-.492 1.224-.684.336-.192.54-.312.612-.36a.959.959 0 0 1 .432-.108c.144 0 .216.048.216.144 0 .096-.072.336-.216.72-.144.36-.216.732-.216 1.116 0 .312.096.588.288.828.192.216.576.324 1.152.324.264 0 .552-.036.864-.108.336-.096.66-.192.972-.288l.9-.324c.288-.12.504-.204.648-.252l1.08-.432c.144-.072.288-.132.432-.18.048 0 .084.036.108.108.048.048.072.096.072.144a.242.242 0 0 1-.108.216l-1.62.648c-.24.096-.552.228-.936.396-.36.144-.756.288-1.188.432-.432.144-.852.276-1.26.396a4.787 4.787 0 0 1-1.08.144c-.624 0-1.044-.144-1.26-.432a1.713 1.713 0 0 1-.288-.972c0-.216.012-.42.036-.612a6.61 6.61 0 0 0 .108-.612c0-.048-.024-.072-.072-.072-.072 0-.12.012-.144.036-.072.024-.372.18-.9.468-.504.288-1.08.6-1.728.936-.624.312-1.236.6-1.836.864-.576.264-.996.396-1.26.396-.192 0-.312-.048-.36-.144a.639.639 0 0 1-.072-.288c0-.312.216-.888.648-1.728.456-.864 1.068-1.884 1.836-3.06.768-1.2 1.68-2.508 2.736-3.924a77.707 77.707 0 0 1 7.2-8.46 41.303 41.303 0 0 1 4.032-3.564c1.344-1.056 2.652-1.896 3.924-2.52 1.296-.624 2.508-.936 3.636-.936.648 0 1.116.192 1.404.576.288.384.432.852.432 1.404Zm-1.656.216c0-.336-.108-.648-.324-.936-.192-.312-.492-.468-.9-.468-.936 0-2.04.372-3.312 1.116-1.248.744-2.556 1.716-3.924 2.916a53.877 53.877 0 0 0-4.176 4.032c-1.392 1.488-2.7 3-3.924 4.536a81.156 81.156 0 0 0-3.24 4.356c-.936 1.392-1.632 2.58-2.088 3.564 1.32-.648 2.772-1.464 4.356-2.448a79.895 79.895 0 0 0 4.824-3.204 90.744 90.744 0 0 0 4.716-3.636 53.288 53.288 0 0 0 4.068-3.708c1.176-1.2 2.124-2.328 2.844-3.384.72-1.056 1.08-1.968 1.08-2.736Zm19.592 9.072a.699.699 0 0 1-.288.432c-.144.072-.42.132-.828.18-.12 0-.564.012-1.332.036-.768 0-1.788.012-3.06.036-1.248.024-2.724.048-4.428.072h-5.544a76.325 76.325 0 0 1-3.528 2.952 105.52 105.52 0 0 1-3.672 2.772c-1.2.864-2.328 1.656-3.384 2.376a100.02 100.02 0 0 1-2.7 1.728c-.408.912-.72 1.776-.936 2.592-.216.792-.324 1.5-.324 2.124a.824.824 0 0 1-.108.432c-.048.144-.192.24-.432.288a.936.936 0 0 1-.288.036c-.264 0-.444-.084-.54-.252a.763.763 0 0 1-.18-.504c.024-.504.24-1.272.648-2.304.432-1.032 1.008-2.208 1.728-3.528.72-1.344 1.56-2.76 2.52-4.248a69.175 69.175 0 0 1 3.06-4.428h-11.844c-.264 0-.516-.012-.756-.036-.24-.048-.36-.168-.36-.36 0-.048.036-.12.108-.216.048-.12.096-.228.144-.324a.618.618 0 0 1 .18-.18c.168-.12.48-.18.936-.18h4.5c1.296 0 2.664.012 4.104.036h3.96a54.19 54.19 0 0 1 2.772-3.24 28.135 28.135 0 0 1 2.844-2.628c.936-.768 1.848-1.368 2.736-1.8.888-.456 1.728-.684 2.52-.684.624 0 1.08.132 1.368.396.288.264.432.828.432 1.692 0 .816-.396 1.764-1.188 2.844-.768 1.056-1.764 2.184-2.988 3.384 1.32-.024 2.712-.048 4.176-.072 1.488-.024 2.868-.036 4.14-.036 1.296-.024 2.376-.036 3.24-.036.888-.024 1.38-.036 1.476-.036.264 0 .516.072.756.216.24.12.36.276.36.468ZM165.282 5.58c0-.312-.096-.588-.288-.828-.168-.264-.48-.396-.936-.396-.552 0-1.188.192-1.908.576-.72.384-1.476.912-2.268 1.584a27.141 27.141 0 0 0-2.484 2.34 43.54 43.54 0 0 0-2.556 2.88h5.184c.456-.024.912-.036 1.368-.036 1.152-1.176 2.088-2.292 2.808-3.348.72-1.08 1.08-2.004 1.08-2.772Zm-11.412 7.416a59.005 59.005 0 0 0-3.168 4.536 44.692 44.692 0 0 0-2.448 4.5 57.27 57.27 0 0 0 2.52-1.62 74.931 74.931 0 0 0 3.024-2.16c1.08-.816 2.16-1.668 3.24-2.556 1.08-.912 2.1-1.824 3.06-2.736l-6.228.036Z"/></svg>