<svg xmlns="http://www.w3.org/2000/svg" width="24" height="24" fill="none"><path stroke="url(#a)" stroke-linecap="round" stroke-width="2" d="M9 17h6"/><path stroke="url(#b)" stroke-linecap="round" stroke-width="2" d="M9 13h6"/><path stroke="url(#c)" stroke-linecap="round" stroke-width="2" d="M9 9h1"/><path stroke="url(#d)" stroke-width="2" d="M5 6a3 3 0 0 1 3-3h5.172a2 2 0 0 1 1.414.586l3.828 3.828A2 2 0 0 1 19 8.828V18a3 3 0 0 1-3 3H8a3 3 0 0 1-3-3V6Z"/><path stroke="url(#e)" stroke-width="2" d="M13 3v2a4 4 0 0 0 4 4h2"/><defs><linearGradient id="a" x1="11.186" x2="11.953" y1="18.099" y2="15.812" gradientUnits="userSpaceOnUse"><stop stop-color="#fff"/><stop offset="1" stop-color="#AED3FF"/></linearGradient><linearGradient id="b" x1="11.186" x2="11.953" y1="14.099" y2="11.812" gradientUnits="userSpaceOnUse"><stop stop-color="#fff"/><stop offset="1" stop-color="#AED3FF"/></linearGradient><linearGradient id="c" x1="9.364" x2="10.379" y1="10.099" y2="9.594" gradientUnits="userSpaceOnUse"><stop stop-color="#fff"/><stop offset="1" stop-color="#AED3FF"/></linearGradient><linearGradient id="d" x1="10.101" x2="25.509" y1="22.776" y2="16.815" gradientUnits="userSpaceOnUse"><stop stop-color="#fff"/><stop offset="1" stop-color="#AED3FF"/></linearGradient><linearGradient id="e" x1="15.186" x2="21.272" y1="9.592" y2="6.565" gradientUnits="userSpaceOnUse"><stop stop-color="#fff"/><stop offset="1" stop-color="#AED3FF"/></linearGradient></defs></svg>