<svg xmlns="http://www.w3.org/2000/svg" width="24" height="24" fill="none"><path fill="#00223C" d="M6.96 0h10.08C20.88 0 24 3.12 24 6.96v10.08A6.96 6.96 0 0 1 17.04 24H6.96C3.12 24 0 20.88 0 17.04V6.96A6.96 6.96 0 0 1 6.96 0Zm-.24 2.4A4.32 4.32 0 0 0 2.4 6.72v10.56a4.317 4.317 0 0 0 4.32 4.32h10.56a4.32 4.32 0 0 0 4.32-4.32V6.72a4.317 4.317 0 0 0-4.32-4.32H6.72ZM18.3 4.2a1.5 1.5 0 1 1 0 3 1.5 1.5 0 0 1 0-3ZM12 6a6 6 0 1 1 0 12 6 6 0 0 1 0-12Zm0 2.4a3.6 3.6 0 1 0 0 7.2 3.6 3.6 0 0 0 0-7.2Z"/></svg>