<svg xmlns="http://www.w3.org/2000/svg" width="88" height="86" fill="none"><path fill="url(#a)" fill-rule="evenodd" d="M45.424 85.281c-61.79 0-59-85.146-1-85.146 57.8 0 57.46 85.146 1 85.146Zm-1.06-79.427c-2.791-.005-5.576.24-8.32.733l1.06 5.854-12.7 8.68-11.15-.666a35.743 35.743 0 0 0-2.93 4.668l2.34 21.11 6.88 8.526-7.06 9.643c6.29 8.882 17.13 15.16 32.73 15.16 22.46 0 34.65-15.584 36.42-32.413l-5.27-4.619-7.73-2.835-1.26 1.842 3 3.038 2.32.337 1 3.24-7.3 3.559-5-8.4-1.73 3.78 3.77 7.995 4.63 1.302-7.46 3.858-9.72 13.443-8.26.627-1.81-7.715 1.37-11.37-9.47-2.43-3.12-7.214 1.49-6.944 9-3.558 8.51 4.696 4.49-1.417 6.69 1.745 1.52-8.226-8.61-2.748-.1 5.362-5.47-.242-.47-5.67-6.76 1.437.51-4.986-2.88-3.221 4.38-3.858 7.12 3.858 2.23-4.562 5.64-2.314 3.76 1.6 3.82-.742 1.65-3.858c-5.73-3.8-12.96-6.085-21.75-6.085Z" clip-rule="evenodd"/><defs><linearGradient id="a" x1="31.981" x2="119.916" y1="93.684" y2="48.595" gradientUnits="userSpaceOnUse"><stop stop-color="#fff"/><stop offset="1" stop-color="#AED3FF"/></linearGradient></defs></svg>