<svg width="81" height="90" viewBox="0 0 81 90" fill="none" xmlns="http://www.w3.org/2000/svg">
<path fill-rule="evenodd" clip-rule="evenodd" d="M36.52 65.796C38.0565 69.2269 39.2942 72.7753 40.22 76.4043C42.92 87.0126 32.82 89.2789 32.82 89.2789L21.56 71.2544L1.79 65.8828C1.79 65.8828 3.55 55.6216 12.39 55.9881C16 56.1328 19.99 56.4992 23.45 56.885C26.03 53.1335 29.39 48.2054 33 43.0845L0 32.1676C0 32.1676 2 16.4866 19.1 20.0452C26.29 21.54 37.34 23.652 45.71 25.224C48.56 21.3664 51.11 18.0007 53.06 15.6572C61.14 6.00362 73.87 -1.63437 78.33 1.80851C82.79 5.25139 79.14 19.3797 71.03 29.149C65.14 36.3241 46.27 55.8049 36.52 65.796ZM74.94 62.1216C81.14 74.5527 66.14 82.7596 66.14 82.7596L48 53.9593L54.8794 46.7772L61.7014 39.5442C64.7814 45.562 72.23 56.75 74.94 62.1602V62.1216Z" fill="url(#paint0_linear_309_1249)"/>
<defs>
<linearGradient id="paint0_linear_309_1249" x1="29.2419" y1="97.9938" x2="113.556" y2="59.8807" gradientUnits="userSpaceOnUse">
<stop stop-color="white"/>
<stop offset="1" stop-color="#AED3FF"/>
</linearGradient>
</defs>
</svg>
