<svg xmlns="http://www.w3.org/2000/svg" width="81" height="90" fill="none"><path fill="url(#a)" fill-rule="evenodd" d="M36.52 65.796a65.671 65.671 0 0 1 3.7 10.608c2.7 10.609-7.4 12.875-7.4 12.875L21.56 71.254 1.79 65.883s1.76-10.261 10.6-9.895c3.61.145 7.6.511 11.06.897 2.58-3.752 5.94-8.68 9.55-13.8L0 32.167s2-15.681 19.1-12.123c7.19 1.495 18.24 3.607 26.61 5.179 2.85-3.858 5.4-7.223 7.35-9.567C61.14 6.004 73.87-1.634 78.33 1.81c4.46 3.442.81 17.57-7.3 27.34-5.89 7.175-24.76 26.656-34.51 36.647Zm38.42-3.674c6.2 12.43-8.8 20.638-8.8 20.638L48 53.96l6.88-7.183 6.821-7.233C64.781 45.562 72.23 56.75 74.94 62.16v-.038Z" clip-rule="evenodd"/><defs><linearGradient id="a" x1="29.242" x2="113.556" y1="97.994" y2="59.881" gradientUnits="userSpaceOnUse"><stop stop-color="#fff"/><stop offset="1" stop-color="#AED3FF"/></linearGradient></defs></svg>