<svg xmlns="http://www.w3.org/2000/svg" width="24" height="24" fill="none"><path stroke="url(#a)" stroke-width="2" d="M3 7a4 4 0 0 1 4-4h10a4 4 0 0 1 4 4v10a4 4 0 0 1-4 4H7a4 4 0 0 1-4-4V7Z"/><path stroke="url(#b)" stroke-width="2" d="M12 12a3 3 0 0 1 3-3h5a1 1 0 0 1 1 1v4a1 1 0 0 1-1 1h-5a3 3 0 0 1-3-3Z"/><path stroke="url(#c)" stroke-linecap="round" stroke-width="2" d="M15 12h.1"/><defs><linearGradient id="a" x1="9.559" x2="27.816" y1="22.776" y2="13.695" gradientUnits="userSpaceOnUse"><stop stop-color="#fff"/><stop offset="1" stop-color="#AED3FF"/></linearGradient><linearGradient id="b" x1="15.279" x2="22.594" y1="15.592" y2="10.134" gradientUnits="userSpaceOnUse"><stop stop-color="#fff"/><stop offset="1" stop-color="#AED3FF"/></linearGradient><linearGradient id="c" x1="15.036" x2="15.163" y1="13.099" y2="13.092" gradientUnits="userSpaceOnUse"><stop stop-color="#fff"/><stop offset="1" stop-color="#AED3FF"/></linearGradient></defs></svg>