<svg width="24" height="24" viewBox="0 0 24 24" fill="none" xmlns="http://www.w3.org/2000/svg">
<path d="M3 7C3 4.79086 4.79086 3 7 3H17C19.2091 3 21 4.79086 21 7V17C21 19.2091 19.2091 21 17 21H7C4.79086 21 3 19.2091 3 17V7Z" stroke="url(#paint0_linear_310_272)" stroke-width="2"/>
<path d="M12 12C12 10.3431 13.3431 9 15 9H20C20.5523 9 21 9.44772 21 10V14C21 14.5523 20.5523 15 20 15H15C13.3431 15 12 13.6569 12 12Z" stroke="url(#paint1_linear_310_272)" stroke-width="2"/>
<path d="M15 12L15.1 12" stroke="url(#paint2_linear_310_272)" stroke-width="2" stroke-linecap="round"/>
<defs>
<linearGradient id="paint0_linear_310_272" x1="9.55865" y1="22.7763" x2="27.8161" y2="13.6947" gradientUnits="userSpaceOnUse">
<stop stop-color="white"/>
<stop offset="1" stop-color="#AED3FF"/>
</linearGradient>
<linearGradient id="paint1_linear_310_272" x1="15.2793" y1="15.5921" x2="22.5944" y2="10.1341" gradientUnits="userSpaceOnUse">
<stop stop-color="white"/>
<stop offset="1" stop-color="#AED3FF"/>
</linearGradient>
<linearGradient id="paint2_linear_310_272" x1="15.0364" y1="13.0987" x2="15.1627" y2="13.0924" gradientUnits="userSpaceOnUse">
<stop stop-color="white"/>
<stop offset="1" stop-color="#AED3FF"/>
</linearGradient>
</defs>
</svg>
