<svg xmlns="http://www.w3.org/2000/svg" width="24" height="24" fill="none"><path fill="#fff" d="M20.503 3.492A11.842 11.842 0 0 0 16.628.9a11.89 11.89 0 0 0-4.58-.9C5.463 0 .096 5.34.096 11.892c0 2.1.555 4.14 1.592 5.94L0 24l6.332-1.656a12.002 12.002 0 0 0 5.716 1.452c6.585 0 11.952-5.34 11.952-11.892 0-3.18-1.242-6.168-3.497-8.412ZM12.048 21.78c-1.785 0-3.533-.48-5.065-1.38l-.362-.216-3.763.984L3.86 17.52l-.24-.372a9.88 9.88 0 0 1-1.52-5.256c0-5.448 4.462-9.888 9.937-9.888a9.858 9.858 0 0 1 7.02 2.904 9.816 9.816 0 0 1 2.157 3.208c.5 1.201.754 2.489.749 3.788.024 5.448-4.438 9.876-9.914 9.876Zm5.452-7.392c-.302-.144-1.773-.864-2.039-.972-.277-.096-.47-.144-.675.144-.205.3-.772.972-.94 1.164-.17.204-.35.228-.652.072-.302-.144-1.266-.468-2.4-1.476-.892-.792-1.483-1.764-1.664-2.064-.17-.3-.024-.456.132-.612.133-.132.302-.348.447-.516.144-.168.205-.3.301-.492.097-.204.048-.372-.024-.516a98.486 98.486 0 0 1-.917-2.208c-.24-.576-.494-.504-.675-.516h-.579c-.205 0-.519.072-.796.372-.265.3-1.037 1.02-1.037 2.484s1.073 2.88 1.218 3.072c.145.204 2.11 3.204 5.102 4.488.711.312 1.266.492 1.7.624.712.228 1.363.192 1.881.12.58-.084 1.773-.72 2.015-1.416.253-.696.253-1.284.168-1.416-.084-.132-.265-.192-.566-.336Z"/></svg>